<svg width="35" height="41" viewBox="0 0 35 41" fill="none" xmlns="http://www.w3.org/2000/svg">
<path d="M6.99022 10.9915V6.99214C6.99214 3.13058 3.86156 0 0 0V14.6291C0 15.3793 0.187529 16.0873 0.51666 16.7073C2.62923 14.4378 4.80494 12.5529 6.99214 10.9915H6.99022Z" fill="url(#paint0_linear_2058_7192)"/>
<path d="M9.35364 6.04114V9.42813C10.6931 8.60913 12.0307 7.90494 13.353 7.29834C12.2201 6.50613 10.8424 6.04114 9.35364 6.04114Z" fill="url(#paint1_linear_2058_7192)"/>
<path d="M34.8557 4.21939V0C32.1347 0 29.7791 1.55572 28.6233 3.82329C31.2984 3.76971 33.4608 4.00125 34.8557 4.21939Z" fill="url(#paint2_linear_2058_7192)"/>
<path d="M25.5019 11.6459C22.8325 13.7221 20.7046 16.2595 19.1527 19.0686H19.1642C20.7123 16.2614 22.8382 13.7221 25.5019 11.6459Z" fill="url(#paint3_linear_2058_7192)"/>
<path d="M25.502 11.644V6.04114C21.6405 6.04114 18.5099 9.17172 18.5099 13.0333V19.0533L18.6419 19.0686H19.1548C20.7067 16.2595 22.8345 13.7202 25.5039 11.644H25.502Z" fill="url(#paint4_linear_2058_7192)"/>
<path d="M25.502 11.644V6.04114C21.6405 6.04114 18.5099 9.17172 18.5099 13.0333V19.0533L18.6419 19.0686H19.1548C20.7067 16.2595 22.8345 13.7202 25.5039 11.644H25.502Z" fill="url(#paint5_linear_2058_7192)"/>
<path d="M4.43944 19.0686H16.2136L16.3456 19.0533V13.0333C16.3456 10.6585 15.1611 8.56129 13.3509 7.29834C12.0286 7.90494 10.6929 8.61104 9.35154 9.42813V12.7883C9.35154 13.4428 8.82148 13.9728 8.16705 13.9728H8.17661H6.9883V10.9915C4.8011 12.553 2.62538 14.4359 0.512817 16.7073C1.2591 18.1119 2.73446 19.0686 4.43752 19.0686H4.43944Z" fill="url(#paint6_linear_2058_7192)"/>
<path d="M4.43944 19.0686H16.2136L16.3456 19.0533V13.0333C16.3456 10.6585 15.1611 8.56129 13.3509 7.29834C12.0286 7.90494 10.6929 8.61104 9.35154 9.42813V12.7883C9.35154 13.4428 8.82148 13.9728 8.16705 13.9728H8.17661H6.9883V10.9915C4.8011 12.553 2.62538 14.4359 0.512817 16.7073C1.2591 18.1119 2.73446 19.0686 4.43752 19.0686H4.43944Z" fill="url(#paint7_linear_2058_7192)"/>
<path d="M34.8557 6.88885V4.21752C33.4607 3.99938 31.2964 3.76784 28.6232 3.82142C28.1391 4.77246 27.8635 5.84979 27.8635 6.99027V7.0936V10.0137C30.0833 8.66272 32.4427 7.70785 34.8537 7.13187V6.88502L34.8557 6.88885Z" fill="url(#paint8_linear_2058_7192)"/>
<path d="M34.8557 6.88885V4.21752C33.4607 3.99938 31.2964 3.76784 28.6232 3.82142C28.1391 4.77246 27.8635 5.84979 27.8635 6.99027V7.0936V10.0137C30.0833 8.66272 32.4427 7.70785 34.8537 7.13187V6.88502L34.8557 6.88885Z" fill="url(#paint9_linear_2058_7192)"/>
<path d="M34.8554 12.2295V7.14331C32.4424 7.71738 30.0849 8.67033 27.8651 10.0175V13.9728H26.6768H26.6864C26.0319 13.9728 25.5019 13.4427 25.5019 12.7883V11.644C22.8382 13.7221 20.7123 16.2595 19.1642 19.0667H28.6726C29.8954 16.0165 32.1324 13.6532 34.8554 12.2276V12.2295Z" fill="url(#paint10_linear_2058_7192)"/>
<path d="M34.8554 12.2295V7.14331C32.4424 7.71738 30.0849 8.67033 27.8651 10.0175V13.9728H26.6768H26.6864C26.0319 13.9728 25.5019 13.4427 25.5019 12.7883V11.644C22.8382 13.7221 20.7123 16.2595 19.1642 19.0667H28.6726C29.8954 16.0165 32.1324 13.6532 34.8554 12.2276V12.2295Z" fill="url(#paint11_linear_2058_7192)"/>
<path d="M34.8557 7.13562C32.4427 7.7116 30.0833 8.66647 27.8655 10.0174C30.0852 8.67029 32.4446 7.71734 34.8557 7.14327V7.13562Z" fill="url(#paint12_linear_2058_7192)"/>
<path d="M34.8557 7.13562C32.4427 7.7116 30.0833 8.66647 27.8655 10.0174C30.0852 8.67029 32.4446 7.71734 34.8557 7.14327V7.13562Z" fill="url(#paint13_linear_2058_7192)"/>
<path d="M34.8557 7.13562C32.4427 7.7116 30.0833 8.66647 27.8655 10.0174C30.0852 8.67029 32.4446 7.71734 34.8557 7.14327V7.13562Z" fill="url(#paint14_linear_2058_7192)"/>
<path d="M28.6749 19.0685H30.4162C32.8675 19.0685 34.8557 17.0804 34.8557 14.6291V12.2295C32.1346 13.6551 29.8957 16.0183 28.673 19.0685H28.6749Z" fill="url(#paint15_linear_2058_7192)"/>
<path d="M28.6749 19.0685H30.4162C32.8675 19.0685 34.8557 17.0804 34.8557 14.6291V12.2295C32.1346 13.6551 29.8957 16.0183 28.673 19.0685H28.6749Z" fill="url(#paint16_linear_2058_7192)"/>
<path d="M28.6749 19.0685H30.4162C32.8675 19.0685 34.8557 17.0804 34.8557 14.6291V12.2295C32.1346 13.6551 29.8957 16.0183 28.673 19.0685H28.6749Z" fill="url(#paint17_linear_2058_7192)"/>
<path d="M14.6084 29.5281C14.3424 29.3157 14.0879 29.086 13.841 28.8392C11.8261 26.8242 10.9209 24.1184 11.1219 21.4816H6.44705C6.426 21.495 6.40495 21.5103 6.3839 21.5237C6.35903 21.5409 6.33415 21.5562 6.31119 21.5734C5.81749 21.9159 5.3391 22.2719 4.87602 22.6374C4.86454 22.6469 4.85497 22.6546 4.84349 22.6641C4.70189 22.7751 4.5622 22.888 4.42442 23.0009C4.40528 23.0182 4.38423 23.0335 4.3651 23.0507C4.23498 23.1578 4.10486 23.265 3.97856 23.3741C3.95751 23.3913 3.93646 23.4104 3.91541 23.4277C3.7872 23.5367 3.66091 23.6458 3.53653 23.7568C3.51931 23.7721 3.50017 23.7893 3.48295 23.8046C3.35283 23.9194 3.22271 24.0362 3.09641 24.1529C3.08493 24.1625 3.07345 24.1739 3.06197 24.1835C2.92419 24.3098 2.78641 24.438 2.65247 24.5662C4.04554 25.6627 5.53046 26.5812 7.07852 27.3313C7.25074 26.8893 7.67938 26.5774 8.18073 26.5774H8.17116H9.35948V28.2977C11.0645 28.9177 12.8249 29.3463 14.6065 29.5721L14.6122 29.5281H14.6084Z" fill="url(#paint18_linear_2058_7192)"/>
<path d="M34.5418 29.5951C32.3125 29.9185 30.0239 29.7329 27.8635 29.0402V34.511C31.0018 34.511 33.6578 32.4425 34.5418 29.5951Z" fill="url(#paint19_linear_2058_7192)"/>
<path d="M19.8225 22.7694C19.0112 23.5731 18.5079 24.6887 18.5079 25.921V33.0567C20.7793 33.7513 22.9723 34.7827 25.0064 36.1394C25.3164 35.3606 25.4905 34.5129 25.5001 33.6269V28.045C24.2142 27.3676 23.0048 26.4893 21.9217 25.4063C21.1065 24.5911 20.4081 23.7051 19.8225 22.7675V22.7694Z" fill="url(#paint20_linear_2058_7192)"/>
<path d="M1.97862 25.2207C1.97862 25.2207 1.96905 25.2302 1.96331 25.236C1.74516 25.4541 1.53276 25.6723 1.32418 25.8923C1.32035 25.8962 1.31844 25.8981 1.31461 25.9019C0.853446 26.3879 0.417155 26.8759 0 27.3639V27.5189C0 29.0019 0.463081 30.3758 1.25147 31.5086C3.10188 32.1612 5.05562 32.4348 6.99405 32.3276V27.7638C6.99405 27.6126 7.02275 27.4672 7.07633 27.3352C5.52827 26.585 4.04335 25.6646 2.65028 24.5701C2.42256 24.7863 2.19868 25.0044 1.98053 25.2226L1.97862 25.2207Z" fill="url(#paint21_linear_2058_7192)"/>
<path d="M16.3475 32.5037V25.923C16.3475 23.4717 14.3593 21.4835 11.908 21.4835H11.1216C10.9206 24.1204 11.8257 26.8262 13.8407 28.8411C14.0876 29.088 14.344 29.3176 14.6081 29.53L14.6023 29.574C12.8208 29.3463 11.0603 28.9196 9.35535 28.2996V32.0846C11.6861 31.8818 14.0436 32.0253 16.3456 32.5075L16.3475 32.5037Z" fill="url(#paint22_linear_2058_7192)"/>
<path d="M0.926162 26.3171C0.926162 26.3171 0.924248 26.319 0.922334 26.3209C0.60277 26.6673 0.296601 27.0155 0 27.3619C0.417155 26.8739 0.853446 26.386 1.31461 25.9019C1.18258 26.0396 1.05437 26.1793 0.926162 26.319V26.3171Z" fill="url(#paint23_linear_2058_7192)"/>
<path d="M16.3479 40.4545V32.5037C14.044 32.0234 11.6884 31.8779 9.35767 32.0808V33.558C9.35767 37.4196 12.4863 40.5502 16.3479 40.5502V40.4526V40.4545Z" fill="url(#paint24_linear_2058_7192)"/>
<path d="M18.5099 33.6614V40.5502C21.4587 40.5502 23.9807 38.7227 25.0083 36.1413C22.9742 34.7846 20.7813 33.7532 18.5099 33.0586V33.6614Z" fill="url(#paint25_linear_2058_7192)"/>
<path d="M1.25171 31.5067C2.51466 33.3208 4.61574 34.511 6.99429 34.511V32.3276C5.05586 32.4348 3.10403 32.1592 1.25171 31.5086V31.5067Z" fill="url(#paint26_linear_2058_7192)"/>
<path d="M34.5417 29.5951C34.7465 28.9387 34.8555 28.2422 34.8555 27.5189V21.4988L34.7235 21.4835H22.9494C21.7304 21.4835 20.6263 21.9753 19.8226 22.7713C20.4082 23.709 21.1066 24.5969 21.9218 25.4101C23.0049 26.4932 24.2123 27.3715 25.5002 28.0489V26.5793H26.6885H26.6789C27.3333 26.5793 27.8634 27.1094 27.8634 27.7638V29.0421C30.0238 29.7348 32.3124 29.9204 34.5417 29.597V29.5951Z" fill="url(#paint27_linear_2058_7192)"/>
<path d="M0.926284 26.3172C1.59029 25.5977 2.30022 24.8801 3.0599 24.1855C3.07138 24.1759 3.08286 24.1644 3.09434 24.1548C3.22255 24.0381 3.35076 23.9214 3.48088 23.8066C3.4981 23.7913 3.51724 23.774 3.53446 23.7587C3.65884 23.6478 3.78705 23.5387 3.91335 23.4296C3.9344 23.4124 3.95544 23.3933 3.97649 23.376C4.1047 23.267 4.23291 23.1598 4.36303 23.0526C4.38217 23.0354 4.40322 23.0201 4.42235 23.0029C4.56013 22.89 4.69982 22.7771 4.84142 22.6661C4.8529 22.6565 4.86247 22.6489 4.87395 22.6393C5.33703 22.2738 5.81542 21.9179 6.30912 21.5754C6.334 21.5581 6.35887 21.5428 6.38183 21.5256C6.40288 21.5122 6.42393 21.4969 6.44307 21.4835H0.132158L0.00012207 21.4988V27.3601C0.296723 27.0137 0.604806 26.6673 0.922457 26.321C0.922457 26.321 0.92437 26.3191 0.926284 26.3172Z" fill="url(#paint28_linear_2058_7192)"/>
<path d="M6.3857 21.5256C6.36083 21.5429 6.33595 21.5582 6.31299 21.5754C6.33786 21.5582 6.36274 21.5429 6.3857 21.5256Z" fill="url(#paint29_linear_2058_7192)"/>
<path d="M6.3857 21.5256C6.36083 21.5429 6.33595 21.5582 6.31299 21.5754C6.33786 21.5582 6.36274 21.5429 6.3857 21.5256Z" fill="url(#paint30_linear_2058_7192)"/>
<path d="M0.926441 26.3171C0.926441 26.3171 0.924463 26.3191 0.922485 26.3211C0.922485 26.3211 0.924463 26.3191 0.926441 26.3171Z" fill="url(#paint31_linear_2058_7192)"/>
<path d="M0.926441 26.3171C0.926441 26.3171 0.924463 26.3191 0.922485 26.3211C0.922485 26.3211 0.924463 26.3191 0.926441 26.3171Z" fill="url(#paint32_linear_2058_7192)"/>
<defs>
<linearGradient id="paint0_linear_2058_7192" x1="3.40483" y1="-26.6848" x2="3.40731" y2="17.5182" gradientUnits="userSpaceOnUse">
<stop stop-color="#FF0028"/>
<stop offset="1" stop-color="#FF8425"/>
</linearGradient>
<linearGradient id="paint1_linear_2058_7192" x1="11.2636" y1="-7.2144" x2="11.2644" y2="12.5091" gradientUnits="userSpaceOnUse">
<stop stop-color="#FF0028"/>
<stop offset="1" stop-color="#FF8425"/>
</linearGradient>
<linearGradient id="paint2_linear_2058_7192" x1="0.806118" y1="54.954" x2="43.1928" y2="-15.1537" gradientUnits="userSpaceOnUse">
<stop stop-color="#FF0028"/>
<stop offset="1" stop-color="#FF8425"/>
</linearGradient>
<linearGradient id="paint3_linear_2058_7192" x1="-1.06702" y1="53.8229" x2="41.3185" y2="-16.2865" gradientUnits="userSpaceOnUse">
<stop stop-color="#E52335"/>
<stop offset="1" stop-color="#EF812D"/>
</linearGradient>
<linearGradient id="paint4_linear_2058_7192" x1="-3.06306" y1="52.6162" x2="39.3225" y2="-17.4932" gradientUnits="userSpaceOnUse">
<stop stop-color="#E52335"/>
<stop offset="1" stop-color="#EF812D"/>
</linearGradient>
<linearGradient id="paint5_linear_2058_7192" x1="23.1554" y1="28.879" x2="21.2939" y2="4.24424" gradientUnits="userSpaceOnUse">
<stop stop-color="#F81450"/>
<stop offset="1" stop-color="#80011C"/>
</linearGradient>
<linearGradient id="paint6_linear_2058_7192" x1="-10.1182" y1="48.35" x2="32.2685" y2="-21.7578" gradientUnits="userSpaceOnUse">
<stop stop-color="#E52335"/>
<stop offset="1" stop-color="#EF812D"/>
</linearGradient>
<linearGradient id="paint7_linear_2058_7192" x1="9.49282" y1="29.9114" x2="7.63286" y2="5.27549" gradientUnits="userSpaceOnUse">
<stop stop-color="#F81450"/>
<stop offset="1" stop-color="#80011C"/>
</linearGradient>
<linearGradient id="paint8_linear_2058_7192" x1="1.46109" y1="55.3503" x2="43.8451" y2="-14.758" gradientUnits="userSpaceOnUse">
<stop stop-color="#E52335"/>
<stop offset="1" stop-color="#EF812D"/>
</linearGradient>
<linearGradient id="paint9_linear_2058_7192" x1="32.8652" y1="28.1449" x2="31.0036" y2="3.51013" gradientUnits="userSpaceOnUse">
<stop stop-color="#F81450"/>
<stop offset="1" stop-color="#80011C"/>
</linearGradient>
<linearGradient id="paint10_linear_2058_7192" x1="2.49147" y1="55.9742" x2="44.877" y2="-14.1351" gradientUnits="userSpaceOnUse">
<stop stop-color="#E52335"/>
<stop offset="1" stop-color="#EF812D"/>
</linearGradient>
<linearGradient id="paint11_linear_2058_7192" x1="21.8776" y1="42.3345" x2="28.5417" y2="6.99079" gradientUnits="userSpaceOnUse">
<stop stop-color="#D61480"/>
<stop offset="0.9" stop-color="#50011C"/>
</linearGradient>
<linearGradient id="paint12_linear_2058_7192" x1="2.55487" y1="56.0122" x2="44.9415" y2="-14.0956" gradientUnits="userSpaceOnUse">
<stop stop-color="#E52335"/>
<stop offset="1" stop-color="#EF812D"/>
</linearGradient>
<linearGradient id="paint13_linear_2058_7192" x1="32.756" y1="28.1545" x2="30.8944" y2="3.51975" gradientUnits="userSpaceOnUse">
<stop stop-color="#E52453"/>
<stop offset="1" stop-color="#7F1620"/>
</linearGradient>
<linearGradient id="paint14_linear_2058_7192" x1="24.7899" y1="42.8836" x2="31.4556" y2="7.53884" gradientUnits="userSpaceOnUse">
<stop stop-color="#D61680"/>
<stop offset="0.9" stop-color="#4D0C1F"/>
</linearGradient>
<linearGradient id="paint15_linear_2058_7192" x1="6.71175" y1="58.5242" x2="49.0968" y2="-11.5825" gradientUnits="userSpaceOnUse">
<stop stop-color="#E52335"/>
<stop offset="1" stop-color="#EF812D"/>
</linearGradient>
<linearGradient id="paint16_linear_2058_7192" x1="26.7258" y1="43.2487" x2="33.39" y2="7.90501" gradientUnits="userSpaceOnUse">
<stop stop-color="#D61680"/>
<stop offset="0.9" stop-color="#4D0C1F"/>
</linearGradient>
<linearGradient id="paint17_linear_2058_7192" x1="25.7842" y1="28.1082" x2="37.7291" y2="7.01342" gradientUnits="userSpaceOnUse">
<stop stop-color="#000043"/>
<stop offset="0.79" stop-color="#00636A"/>
</linearGradient>
<linearGradient id="paint18_linear_2058_7192" x1="-7.86979" y1="1.95057" x2="16.387" y2="36.5937" gradientUnits="userSpaceOnUse">
<stop stop-color="#32BC9E"/>
<stop offset="0.91" stop-color="#001E50"/>
</linearGradient>
<linearGradient id="paint19_linear_2058_7192" x1="43.0875" y1="21.887" x2="6.03043" y2="47.8352" gradientUnits="userSpaceOnUse">
<stop offset="0.28" stop-color="#0A5081"/>
<stop offset="1" stop-color="#218D80"/>
</linearGradient>
<linearGradient id="paint20_linear_2058_7192" x1="39.8412" y1="17.2526" x2="2.78552" y2="43.1995" gradientUnits="userSpaceOnUse">
<stop offset="0.28" stop-color="#0A5081"/>
<stop offset="1" stop-color="#218D80"/>
</linearGradient>
<linearGradient id="paint21_linear_2058_7192" x1="33.5791" y1="8.30875" x2="-3.47659" y2="34.2556" gradientUnits="userSpaceOnUse">
<stop offset="0.28" stop-color="#0A5081"/>
<stop offset="1" stop-color="#218D80"/>
</linearGradient>
<linearGradient id="paint22_linear_2058_7192" x1="35.8279" y1="11.521" x2="-1.22779" y2="37.4678" gradientUnits="userSpaceOnUse">
<stop offset="0.28" stop-color="#0A5081"/>
<stop offset="1" stop-color="#218D80"/>
</linearGradient>
<linearGradient id="paint23_linear_2058_7192" x1="31.356" y1="5.1357" x2="-5.69973" y2="31.0825" gradientUnits="userSpaceOnUse">
<stop offset="0.28" stop-color="#085080"/>
<stop offset="1" stop-color="#1F8C80"/>
</linearGradient>
<linearGradient id="paint24_linear_2058_7192" x1="18.6982" y1="23.7772" x2="10.2644" y2="41.864" gradientUnits="userSpaceOnUse">
<stop stop-color="#7BE3B9"/>
<stop offset="1" stop-color="#1E9E9E"/>
</linearGradient>
<linearGradient id="paint25_linear_2058_7192" x1="25.3619" y1="26.8853" x2="16.928" y2="44.972" gradientUnits="userSpaceOnUse">
<stop stop-color="#7BE3B9"/>
<stop offset="1" stop-color="#1E9E9E"/>
</linearGradient>
<linearGradient id="paint26_linear_2058_7192" x1="10.2616" y1="19.8438" x2="1.8264" y2="37.9292" gradientUnits="userSpaceOnUse">
<stop stop-color="#7BE3B9"/>
<stop offset="1" stop-color="#1E9E9E"/>
</linearGradient>
<linearGradient id="paint27_linear_2058_7192" x1="20.4718" y1="27.6755" x2="40.4326" y2="22.3281" gradientUnits="userSpaceOnUse">
<stop stop-color="#1B1C3B"/>
<stop offset="1" stop-color="#00636B"/>
</linearGradient>
<linearGradient id="paint28_linear_2058_7192" x1="11.4056" y1="22.2375" x2="-7.97536" y2="26.0343" gradientUnits="userSpaceOnUse">
<stop stop-color="#F81450"/>
<stop offset="1" stop-color="#80011C"/>
</linearGradient>
<linearGradient id="paint29_linear_2058_7192" x1="3.9737" y1="18.1592" x2="8.72175" y2="24.9396" gradientUnits="userSpaceOnUse">
<stop stop-color="#3FB49A"/>
<stop offset="0.91" stop-color="#1E2749"/>
</linearGradient>
<linearGradient id="paint30_linear_2058_7192" x1="11.0975" y1="20.6643" x2="-8.28272" y2="24.4592" gradientUnits="userSpaceOnUse">
<stop stop-color="#E52453"/>
<stop offset="1" stop-color="#7F1620"/>
</linearGradient>
<linearGradient id="paint31_linear_2058_7192" x1="32.3218" y1="4.32895" x2="-1.11737" y2="27.7386" gradientUnits="userSpaceOnUse">
<stop offset="0.28" stop-color="#085080"/>
<stop offset="1" stop-color="#1F8C80"/>
</linearGradient>
<linearGradient id="paint32_linear_2058_7192" x1="12.1623" y1="24.1621" x2="-7.87163" y2="28.0843" gradientUnits="userSpaceOnUse">
<stop stop-color="#E52453"/>
<stop offset="1" stop-color="#7F1620"/>
</linearGradient>
</defs>
</svg>
